<svg width="28" height="28" viewBox="0 0 28 28" fill="none" xmlns="http://www.w3.org/2000/svg">
  <path d="M14 2.625C7.71875 2.625 2.625 7.71875 2.625 14C2.625 19.6562 6.73438 24.3594 12.1094 25.2031V17.0625H9.40625V14H12.1094V11.6406C12.1094 8.98438 13.7656 7.4375 16.1875 7.4375C17.3594 7.4375 18.5781 7.65625 18.5781 7.65625V10.2812H17.2344C15.9062 10.2812 15.4844 11.0781 15.4844 11.8906V14H18.4531L17.9688 17.0625H15.4844V25.2031C20.8594 24.3594 24.9688 19.6562 24.9688 14C24.9688 7.71875 19.875 2.625 13.5938 2.625H14Z" fill="white"/>
</svg>


