<svg width="32" height="32" viewBox="0 0 32 32" fill="none" xmlns="http://www.w3.org/2000/svg">
<path d="M16.0003 30.3333C23.9164 30.3333 30.3337 23.9161 30.3337 16C30.3337 8.08391 23.9164 1.66666 16.0003 1.66666C8.08424 1.66666 1.66699 8.08391 1.66699 16C1.66699 23.9161 8.08424 30.3333 16.0003 30.3333Z" stroke="#AE3934" stroke-width="0.666667" stroke-linecap="round" stroke-linejoin="round"/>
<path d="M15.6227 16.5793L16.5487 21.83M6.92533 23.5447L6 18.2933L7.704 17.9933C8.16885 17.9192 8.64423 18.0301 9.02827 18.3023C9.41231 18.5745 9.67445 18.9863 9.7585 19.4495C9.84255 19.9126 9.74182 20.3903 9.47792 20.78C9.21401 21.1698 8.80791 21.4407 8.34667 21.5346L8.32933 21.5373L6.62533 21.8373M11.668 22.708L10.742 17.4573L12.4487 17.156C12.9147 17.0789 13.3924 17.1881 13.7786 17.46C14.1649 17.7319 14.4288 18.1447 14.5134 18.6095C14.598 19.0742 14.4965 19.5536 14.2308 19.9441C13.9652 20.3347 13.5566 20.6052 13.0933 20.6973L13.0733 20.7007L11.3667 21.0013M13.198 20.6747L15.146 22.094M26.5493 19.4093C26.4204 19.645 26.2396 19.8482 26.0207 20.0038C25.8017 20.1593 25.5503 20.2631 25.2853 20.3073C24.818 20.3916 24.3364 20.2868 23.9463 20.016C23.5563 19.7452 23.2897 19.3306 23.2053 18.8633L23.202 18.8487L22.9013 17.142C22.8592 16.9092 22.8636 16.6704 22.9142 16.4393C22.9648 16.2082 23.0606 15.9894 23.1962 15.7955C23.3317 15.6016 23.5042 15.4365 23.7039 15.3095C23.9035 15.1826 24.1263 15.0964 24.3593 15.056C24.6237 15.0146 24.8938 15.0301 25.1517 15.1015C25.4096 15.1729 25.6492 15.2985 25.8547 15.47M22.1353 17.4127L24.368 17.0193M22.3667 18.7247L24.5993 18.3313M21.146 19.2113C21.2303 19.6786 21.1255 20.1603 20.8547 20.5503C20.5839 20.9404 20.1693 21.2069 19.702 21.2913L19.6867 21.2947C19.2194 21.3789 18.7377 21.2742 18.3477 21.0034C17.9576 20.7326 17.6911 20.3179 17.6067 19.8507L17.604 19.836L17.2913 18.0627C17.249 17.8316 17.2526 17.5945 17.3021 17.3648C17.3515 17.1352 17.4457 16.9175 17.5793 16.7243C17.7129 16.5311 17.8834 16.3662 18.0808 16.2389C18.2783 16.1116 18.4989 16.0246 18.73 15.9827L18.75 15.9787C18.9796 15.9383 19.215 15.9446 19.4421 15.9972C19.6692 16.0498 19.8834 16.1476 20.0719 16.2848C20.2603 16.422 20.4192 16.5958 20.5391 16.7957C20.6589 16.9957 20.7372 17.2178 20.7693 17.4487M19.3347 9.02065L22.8147 8.40732M22.0347 13.9587L21.108 8.70798M8.76333 13.6227C8.9358 13.5924 9.11254 13.5964 9.28346 13.6345C9.45437 13.6725 9.61612 13.7439 9.75946 13.8444C9.90281 13.945 10.0249 14.0728 10.1189 14.2206C10.2128 14.3684 10.2768 14.5332 10.307 14.7057C10.3372 14.8781 10.3332 15.0549 10.2952 15.2258C10.2571 15.3967 10.1858 15.5584 10.0852 15.7018C9.98464 15.8451 9.85682 15.9673 9.70906 16.0612C9.56129 16.1551 9.39647 16.2191 9.224 16.2493L7.06133 16.6313L6.13467 11.38L8.30067 10.998C8.47478 10.9635 8.65404 10.9641 8.82792 10.9998C9.0018 11.0355 9.1668 11.1055 9.31323 11.2059C9.45965 11.3062 9.58456 11.4348 9.68061 11.5841C9.77667 11.7333 9.84193 11.9003 9.87257 12.0751C9.90322 12.25 9.89862 12.4292 9.85906 12.6022C9.81949 12.7753 9.74576 12.9387 9.64218 13.0828C9.53861 13.227 9.40727 13.349 9.2559 13.4417C9.10452 13.5344 8.93615 13.5959 8.76067 13.6227H8.76333ZM8.76333 13.6227L6.598 14.0047M14.526 15.236L11.9013 15.6993L10.9753 10.4487L13.6 9.98598M11.438 13.074L13.1447 12.7727M15.628 14.46C15.818 14.6288 16.0458 14.7495 16.2923 14.812C16.5387 14.8744 16.7965 14.8767 17.044 14.8187L17.8307 14.68C18.0034 14.6497 18.1685 14.5857 18.3164 14.4915C18.4644 14.3974 18.5923 14.2749 18.6929 14.1313C18.7935 13.9876 18.8647 13.8255 18.9025 13.6543C18.9403 13.483 18.944 13.306 18.9133 13.1333C18.8828 12.9608 18.8185 12.796 18.7242 12.6484C18.6299 12.5007 18.5074 12.3731 18.3638 12.2728C18.2202 12.1725 18.0582 12.1015 17.8871 12.0638C17.716 12.0262 17.5391 12.0226 17.3667 12.0533L16.5133 12.204C16.1654 12.265 15.8075 12.1855 15.5181 11.9829C15.2288 11.7803 15.0316 11.4711 14.97 11.1233C14.9397 10.9508 14.9437 10.774 14.9817 10.603C15.0198 10.4321 15.0912 10.2702 15.1918 10.1269C15.2924 9.98348 15.4202 9.86132 15.5681 9.76737C15.7159 9.67342 15.8808 9.60952 16.0533 9.57932L16.84 9.44065C17.0869 9.36821 17.3488 9.36328 17.5983 9.42635C17.8478 9.48943 18.0758 9.61822 18.2587 9.79932" stroke="#AE3934" stroke-width="0.666667" stroke-linecap="round" stroke-linejoin="round"/>
</svg>
