<svg width="60" height="60" viewBox="0 0 60 60" fill="none" xmlns="http://www.w3.org/2000/svg">
<path d="M57.1769 32.694L47.6639 8.91301C47.3216 8.05208 46.7283 7.31396 45.9612 6.7945C45.194 6.27503 44.2884 5.99822 43.3619 6.00001H36.0599L37.1999 18.195H45.2999L29.9999 30.879L14.6999 18.195H22.7999L23.9399 6.00001H16.6379C14.7419 6.00001 13.0379 7.15201 12.3359 8.91301L2.8229 32.694C1.95922 34.856 1.70399 37.2132 2.0849 39.51L3.8549 50.127C4.03463 51.209 4.59249 52.1921 5.42917 52.9014C6.26585 53.6106 7.32707 53.9999 8.4239 54H51.5729C53.8379 54 55.7699 52.362 56.1419 50.127L57.9119 39.51C58.3016 37.2137 58.0472 34.8544 57.1769 32.694ZM50.8769 45.735C50.7735 46.3687 50.4475 46.9448 49.9577 47.3599C49.4678 47.775 48.846 48.002 48.2039 48H11.7959C11.1538 48.002 10.532 47.775 10.0421 47.3599C9.55225 46.9448 9.22635 46.3687 9.1229 45.735L8.0279 39.156C7.96241 38.7677 7.98247 38.3697 8.08669 37.9899C8.19091 37.6101 8.37678 37.2576 8.63132 36.9571C8.88585 36.6566 9.20292 36.4152 9.56037 36.2499C9.91783 36.0846 10.3071 35.9993 10.7009 36H49.3019C50.9759 36 52.2509 37.503 51.9749 39.156L50.8769 45.735Z" fill="#D9635E"/>
</svg>
