<svg width="32" height="32" viewBox="0 0 32 32" fill="none" xmlns="http://www.w3.org/2000/svg">
<path d="M2.66634 3.99999V2.66666C2.31272 2.66666 1.97358 2.80713 1.72353 3.05718C1.47348 3.30723 1.33301 3.64637 1.33301 3.99999H2.66634ZM17.333 3.99999H18.6663C18.6663 3.64637 18.5259 3.30723 18.2758 3.05718C18.0258 2.80713 17.6866 2.66666 17.333 2.66666V3.99999ZM17.333 12V10.6667C16.9794 10.6667 16.6402 10.8071 16.3902 11.0572C16.1402 11.3072 15.9997 11.6464 15.9997 12H17.333ZM2.66634 5.33332H17.333V2.66666H2.66634V5.33332ZM15.9997 3.99999V25.3333H18.6663V3.99999H15.9997ZM3.99967 22.6667V3.99999H1.33301V22.6667H3.99967ZM17.333 13.3333H23.9997V10.6667H17.333V13.3333ZM27.9997 17.3333V22.6667H30.6663V17.3333H27.9997ZM18.6663 25.3333V12H15.9997V25.3333H18.6663ZM24.9423 26.276C24.6923 26.526 24.3532 26.6664 23.9997 26.6664C23.6461 26.6664 23.307 26.526 23.057 26.276L21.1717 28.1613C21.9218 28.9112 22.939 29.3325 23.9997 29.3325C25.0603 29.3325 26.0776 28.9112 26.8277 28.1613L24.9423 26.276ZM23.057 24.3907C23.307 24.1407 23.6461 24.0003 23.9997 24.0003C24.3532 24.0003 24.6923 24.1407 24.9423 24.3907L26.8277 22.5053C26.0776 21.7554 25.0603 21.3342 23.9997 21.3342C22.939 21.3342 21.9218 21.7554 21.1717 22.5053L23.057 24.3907ZM8.94234 26.276C8.6923 26.526 8.35323 26.6664 7.99967 26.6664C7.64612 26.6664 7.30704 26.526 7.05701 26.276L5.17167 28.1613C5.92178 28.9112 6.93902 29.3325 7.99967 29.3325C9.06033 29.3325 10.0776 28.9112 10.8277 28.1613L8.94234 26.276ZM7.05701 24.3907C7.30704 24.1407 7.64612 24.0003 7.99967 24.0003C8.35323 24.0003 8.6923 24.1407 8.94234 24.3907L10.8277 22.5053C10.0776 21.7554 9.06033 21.3342 7.99967 21.3342C6.93902 21.3342 5.92178 21.7554 5.17167 22.5053L7.05701 24.3907ZM24.9423 24.3907C25.2037 24.6507 25.333 24.9907 25.333 25.3333H27.9997C27.9997 24.312 27.609 23.2853 26.8277 22.5053L24.9423 24.3907ZM25.333 25.3333C25.3329 25.6869 25.1924 26.026 24.9423 26.276L26.8277 28.1613C27.5779 27.4114 27.9994 26.3941 27.9997 25.3333H25.333ZM21.333 24H17.333V26.6667H21.333V24ZM23.057 26.276C22.8069 26.026 22.6664 25.6869 22.6663 25.3333H19.9997C19.9997 26.3547 20.3903 27.3813 21.1717 28.1613L23.057 26.276ZM22.6663 25.3333C22.6664 24.9797 22.8069 24.6406 23.057 24.3907L21.1717 22.5053C20.4215 23.2553 19.9999 24.2725 19.9997 25.3333H22.6663ZM7.05701 26.276C6.80694 26.026 6.66642 25.6869 6.66634 25.3333H3.99967C3.99967 26.3547 4.39034 27.3813 5.17167 28.1613L7.05701 26.276ZM6.66634 25.3333C6.66642 24.9797 6.80694 24.6406 7.05701 24.3907L5.17167 22.5053C4.42148 23.2553 3.9999 24.2725 3.99967 25.3333H6.66634ZM17.333 24H10.6663V26.6667H17.333V24ZM8.94234 24.3907C9.20367 24.6507 9.33301 24.9907 9.33301 25.3333H11.9997C11.9997 24.312 11.609 23.2853 10.8277 22.5053L8.94234 24.3907ZM9.33301 25.3333C9.33293 25.6869 9.19241 26.026 8.94234 26.276L10.8277 28.1613C11.5779 27.4114 11.9994 26.3941 11.9997 25.3333H9.33301ZM27.9997 22.6667C27.9997 23.0203 27.8592 23.3594 27.6091 23.6095C27.3591 23.8595 27.02 24 26.6663 24V26.6667C27.7272 26.6667 28.7446 26.2452 29.4948 25.4951C30.2449 24.7449 30.6663 23.7275 30.6663 22.6667H27.9997ZM23.9997 13.3333C25.0605 13.3333 26.078 13.7547 26.8281 14.5049C27.5782 15.255 27.9997 16.2725 27.9997 17.3333H30.6663C30.6663 16.4578 30.4939 15.5909 30.1589 14.7821C29.8238 13.9733 29.3328 13.2383 28.7137 12.6193C28.0947 12.0002 27.3597 11.5092 26.5509 11.1741C25.7421 10.8391 24.8752 10.6667 23.9997 10.6667V13.3333ZM1.33301 22.6667C1.33301 23.7275 1.75444 24.7449 2.50458 25.4951C3.25473 26.2452 4.27214 26.6667 5.33301 26.6667V24C4.97939 24 4.64025 23.8595 4.3902 23.6095C4.14015 23.3594 3.99967 23.0203 3.99967 22.6667H1.33301Z" fill="#AE3934"/>
</svg>
