<svg width="28" height="31" viewBox="0 0 28 31" fill="none" xmlns="http://www.w3.org/2000/svg">
<g clip-path="url(#clip0_2094_2285)">
<path d="M13.0764 14.7498L0.12207 28.3221C0.267546 28.8377 0.528972 29.3131 0.886362 29.7121C1.24375 30.1112 1.68764 30.4232 2.18411 30.6244C2.68057 30.8256 3.21646 30.9106 3.75081 30.8729C4.28517 30.8352 4.80383 30.6759 5.26717 30.4071L19.8433 22.1055L13.0764 14.7498Z" fill="#EA4335"/>
<path d="M26.1756 12.4428L19.8724 8.83241L12.7773 15.0585L19.9012 22.086L26.1564 18.5143C26.7106 18.2242 27.1747 17.7879 27.4986 17.2527C27.8224 16.7176 27.9936 16.104 27.9936 15.4785C27.9936 14.853 27.8224 14.2394 27.4986 13.7043C27.1747 13.1691 26.7106 12.7328 26.1564 12.4427L26.1756 12.4428Z" fill="#FBBC04"/>
<path d="M0.121779 2.56772C0.0435224 2.8572 0.00454477 3.1559 0.0058932 3.45577V27.4339C0.00666592 27.7337 0.0456076 28.0321 0.121779 28.3221L13.5202 15.0973L0.121779 2.56772Z" fill="#4285F4"/>
<path d="M13.173 15.4449L19.8722 8.83255L5.31549 0.492301C4.76779 0.171561 4.14488 0.00169736 3.51019 6.70499e-06C1.93513 -0.00305442 0.550409 1.04232 0.12207 2.55812L13.173 15.4449Z" fill="#34A853"/>
</g>
<defs>
<clipPath id="clip0_2094_2285">
<rect width="28" height="30.9392" fill="white"/>
</clipPath>
</defs>
</svg>
