<svg width="28" height="28" viewBox="0 0 28 28" fill="none" xmlns="http://www.w3.org/2000/svg">
<g clip-path="url(#clip0_2094_2278)">
<path d="M6.132 0H21.868C25.2547 0 28 2.74531 28 6.132V21.868C28 25.2547 25.2547 28 21.868 28H6.132C2.74531 28 0 25.2547 0 21.868V6.132C0 2.74531 2.74531 0 6.132 0Z" fill="url(#paint0_linear_2094_2278)"/>
<path d="M8.97387 20.323L8.97649 20.3239L8.01913 21.982C7.66968 22.5873 6.89574 22.7946 6.29046 22.4452C5.68518 22.0957 5.4778 21.3218 5.82726 20.7165L6.53251 19.495L6.60021 19.3778C6.72107 19.2041 7.01934 18.9042 7.61598 18.9606C7.61598 18.9606 9.02002 19.113 9.12163 19.8427C9.12163 19.8427 9.13541 20.0828 8.97387 20.323ZM22.552 16.088H19.5667C19.3634 16.0743 19.2747 16.0017 19.2397 15.9595L19.2375 15.9556L16.0419 10.4206L16.0377 10.4233L15.8461 10.1486C15.532 9.66821 15.0332 10.8967 15.0332 10.8967C14.4377 12.2657 15.1178 13.8219 15.3548 14.2924L19.7935 21.9803C20.1428 22.5855 20.9167 22.793 21.5221 22.4434C22.1273 22.094 22.3348 21.32 21.9852 20.7148L20.8754 18.7924C20.8539 18.7458 20.8164 18.6194 21.0441 18.6188H22.552C23.2509 18.6188 23.8175 18.0522 23.8175 17.3533C23.8175 16.6544 23.2509 16.088 22.552 16.088ZM16.7536 17.8081C16.7536 17.8081 16.913 18.6187 16.2964 18.6187H5.26059C4.56168 18.6187 3.99512 18.0521 3.99512 17.3532C3.99512 16.6543 4.56168 16.0878 5.26059 16.0878H8.09777C8.55584 16.0613 8.66434 15.7968 8.66434 15.7968L8.66696 15.7981L12.3704 9.38351L12.3693 9.38329C12.4368 9.25937 12.3806 9.14223 12.3708 9.12374L11.1477 7.00526C10.7982 6.40009 11.0056 5.62604 11.6109 5.2767C12.2162 4.92735 12.9901 5.13451 13.3396 5.73979L13.9068 6.72231L14.473 5.74154C14.8225 5.13637 15.5964 4.92889 16.2017 5.27845C16.807 5.62801 17.0144 6.40173 16.6649 7.00701L11.5114 15.9331C11.4888 15.9875 11.4819 16.0728 11.6496 16.0878H14.7301L14.7307 16.1178C14.7307 16.1178 16.5111 16.1455 16.7536 17.8081Z" fill="white"/>
</g>
<defs>
<linearGradient id="paint0_linear_2094_2278" x1="1400" y1="0" x2="1400" y2="2800" gradientUnits="userSpaceOnUse">
<stop stop-color="#17C9FB"/>
<stop offset="1" stop-color="#1A74E8"/>
</linearGradient>
<clipPath id="clip0_2094_2278">
<rect width="28" height="28" fill="white"/>
</clipPath>
</defs>
</svg>
