<svg width="28" height="28" viewBox="0 0 28 28" fill="none" xmlns="http://www.w3.org/2000/svg">
<path d="M14.0013 2.91666C11.0618 2.91666 8.24273 4.08436 6.1642 6.16289C4.08567 8.24142 2.91797 11.0605 2.91797 14C2.91797 16.9395 4.08567 19.7586 6.1642 21.8371C8.24273 23.9156 11.0618 25.0833 14.0013 25.0833C14.2334 25.0833 14.4559 25.1755 14.62 25.3396C14.7841 25.5037 14.8763 25.7263 14.8763 25.9583C14.8763 26.1904 14.7841 26.4129 14.62 26.577C14.4559 26.7411 14.2334 26.8333 14.0013 26.8333C6.9138 26.8333 1.16797 21.0875 1.16797 14C1.16797 6.91249 6.9138 1.16666 14.0013 1.16666C21.0888 1.16666 26.8346 6.91249 26.8346 14C26.8346 14.2321 26.7424 14.4546 26.5784 14.6187C26.4143 14.7828 26.1917 14.875 25.9596 14.875C25.7276 14.875 25.505 14.7828 25.3409 14.6187C25.1768 14.4546 25.0846 14.2321 25.0846 14C25.0846 11.0605 23.9169 8.24142 21.8384 6.16289C19.7599 4.08436 16.9408 2.91666 14.0013 2.91666Z" fill="#D1443E"/>
<path d="M16.0542 20.3933L20.4036 24.2597C20.4553 24.3058 20.5193 24.336 20.5878 24.3466C20.6563 24.3572 20.7265 24.3477 20.7897 24.3194C20.853 24.291 20.9067 24.2449 20.9444 24.1867C20.9821 24.1285 21.0021 24.0607 21.0021 23.9913V21H25.9604C26.1925 21 26.415 20.9078 26.5791 20.7437C26.7432 20.5796 26.8354 20.357 26.8354 20.125C26.8354 19.8929 26.7432 19.6704 26.5791 19.5063C26.415 19.3422 26.1925 19.25 25.9604 19.25H21.0021V16.2587C21.0021 16.1893 20.9821 16.1215 20.9444 16.0632C20.9067 16.005 20.853 15.959 20.7897 15.9306C20.7265 15.9022 20.6563 15.8928 20.5878 15.9034C20.5193 15.914 20.4553 15.9442 20.4036 15.9903L16.0542 19.8567C16.0162 19.8903 15.9858 19.9316 15.9649 19.9778C15.9441 20.0241 15.9333 20.0742 15.9333 20.125C15.9333 20.1757 15.9441 20.2259 15.9649 20.2721C15.9858 20.3184 16.0162 20.3597 16.0542 20.3933ZM20.1621 10.8267C20.2433 10.7455 20.3077 10.6491 20.3516 10.543C20.3956 10.4369 20.4182 10.3232 20.4182 10.2083C20.4182 10.0935 20.3956 9.97977 20.3516 9.87368C20.3077 9.76759 20.2433 9.67119 20.1621 9.58999C20.0809 9.50878 19.9845 9.44437 19.8784 9.40043C19.7723 9.35648 19.6586 9.33386 19.5437 9.33386C19.4289 9.33386 19.3152 9.35648 19.2091 9.40043C19.103 9.44437 19.0066 9.50878 18.9254 9.58999L11.9604 16.5538L9.07873 13.6733C8.99753 13.5921 8.90113 13.5277 8.79503 13.4838C8.68894 13.4398 8.57523 13.4172 8.46039 13.4172C8.34556 13.4172 8.23185 13.4398 8.12575 13.4838C8.01966 13.5277 7.92326 13.5921 7.84206 13.6733C7.76086 13.7545 7.69645 13.8509 7.6525 13.957C7.60856 14.0631 7.58594 14.1768 7.58594 14.2917C7.58594 14.4065 7.60856 14.5202 7.6525 14.6263C7.69645 14.7324 7.76086 14.8288 7.84206 14.91L11.3421 18.41C11.5061 18.5738 11.7285 18.6659 11.9604 18.6659C12.1923 18.6659 12.4147 18.5738 12.5787 18.41L20.1621 10.8267Z" fill="#D1443E"/>
</svg>
