<svg width="20" height="20" viewBox="0 0 20 20" fill="none" xmlns="http://www.w3.org/2000/svg">
<path d="M7.62802 4.50675C8.68385 2.61341 9.21135 1.66675 10.0005 1.66675C10.7897 1.66675 11.3172 2.61341 12.373 4.50675L12.6464 4.99675C12.9464 5.53508 13.0964 5.80425 13.3297 5.98175C13.563 6.15925 13.8547 6.22508 14.438 6.35675L14.968 6.47675C17.018 6.94091 18.0422 7.17258 18.2864 7.95675C18.5297 8.74008 17.8314 9.55758 16.4339 11.1917L16.0722 11.6142C15.6755 12.0784 15.4764 12.3109 15.3872 12.5976C15.298 12.8851 15.328 13.1951 15.388 13.8142L15.443 14.3784C15.6539 16.5592 15.7597 17.6492 15.1214 18.1334C14.483 18.6176 13.523 18.1759 11.6047 17.2926L11.1072 17.0642C10.5622 16.8126 10.2897 16.6876 10.0005 16.6876C9.71135 16.6876 9.43885 16.8126 8.89385 17.0642L8.39719 17.2926C6.47802 18.1759 5.51802 18.6176 4.88052 18.1342C4.24135 17.6492 4.34719 16.5592 4.55802 14.3784L4.61302 13.8151C4.67302 13.1951 4.70302 12.8851 4.61302 12.5984C4.52469 12.3109 4.32552 12.0784 3.92885 11.6151L3.56719 11.1917C2.16969 9.55841 1.47135 8.74091 1.71469 7.95675C1.95802 7.17258 2.98385 6.94008 5.03385 6.47675L5.56385 6.35675C6.14635 6.22508 6.43719 6.15925 6.67135 5.98175C6.90552 5.80425 7.05469 5.53508 7.35469 4.99675L7.62802 4.50675Z" stroke="#CBC28F" stroke-width="1.25"/>
</svg>
