<svg width="32" height="32" viewBox="0 0 32 32" fill="none" xmlns="http://www.w3.org/2000/svg">
<path fill-rule="evenodd" clip-rule="evenodd" d="M10.964 8.68798C11.4843 8.11426 11.8269 7.40182 11.9501 6.63717C12.0733 5.87252 11.9718 5.08855 11.6581 4.38044C11.3443 3.67232 10.8317 3.07053 10.1826 2.64812C9.53337 2.22571 8.77551 2.00085 8.001 2.00085C7.22649 2.00085 6.46863 2.22571 5.81945 2.64812C5.17027 3.07053 4.65768 3.67232 4.34392 4.38044C4.03016 5.08855 3.92873 5.87252 4.05194 6.63717C4.17515 7.40182 4.5177 8.11426 5.038 8.68798C4.878 8.77198 4.72467 8.86264 4.578 8.95998C3.664 9.56998 3.078 10.368 2.712 11.106C2.27576 11.9949 2.03308 12.9663 2 13.956V18C2 18.5304 2.21071 19.0391 2.58579 19.4142C2.96086 19.7893 3.46957 20 4 20H9C9.3501 19.2896 9.81198 18.64 10.368 18.076L10.342 18H4V14C4 14 4 9.99998 8 9.99998C10.014 9.99998 11.014 11.014 11.51 12.02C11.96 11.512 12.496 11.08 13.096 10.748C12.5914 9.87586 11.8529 9.1623 10.964 8.68798ZM8 7.99998C8.53043 7.99998 9.03914 7.78926 9.41421 7.41419C9.78929 7.03912 10 6.53041 10 5.99998C10 5.46954 9.78929 4.96084 9.41421 4.58576C9.03914 4.21069 8.53043 3.99998 8 3.99998C7.46957 3.99998 6.96086 4.21069 6.58579 4.58576C6.21071 4.96084 6 5.46954 6 5.99998C6 6.53041 6.21071 7.03912 6.58579 7.41419C6.96086 7.78926 7.46957 7.99998 8 7.99998ZM28 20H23C22.6499 19.2896 22.188 18.64 21.632 18.076L21.658 18H28V14C28 14 28 9.99998 24 9.99998C21.986 9.99998 20.986 11.014 20.49 12.02C20.0375 11.5088 19.5012 11.0787 18.904 10.748C19.4086 9.87586 20.1471 9.1623 21.036 8.68798C20.5157 8.11426 20.1731 7.40182 20.0499 6.63717C19.9267 5.87252 20.0282 5.08855 20.3419 4.38044C20.6557 3.67232 21.1683 3.07053 21.8174 2.64812C22.4666 2.22571 23.2245 2.00085 23.999 2.00085C24.7735 2.00085 25.5314 2.22571 26.1806 2.64812C26.8297 3.07053 27.3423 3.67232 27.6561 4.38044C27.9698 5.08855 28.0713 5.87252 27.9481 6.63717C27.8249 7.40182 27.4823 8.11426 26.962 8.68798C27.122 8.77198 27.2753 8.86264 27.422 8.95998C28.336 9.56998 28.922 10.368 29.288 11.106C29.7178 11.9731 29.9604 12.921 30 13.888V18C30 18.5304 29.7893 19.0391 29.4142 19.4142C29.0391 19.7893 28.5304 20 28 20ZM24 7.99998C24.5304 7.99998 25.0391 7.78926 25.4142 7.41419C25.7893 7.03912 26 6.53041 26 5.99998C26 5.46954 25.7893 4.96084 25.4142 4.58576C25.0391 4.21069 24.5304 3.99998 24 3.99998C23.4696 3.99998 22.9609 4.21069 22.5858 4.58576C22.2107 4.96084 22 5.46954 22 5.99998C22 6.53041 22.2107 7.03912 22.5858 7.41419C22.9609 7.78926 23.4696 7.99998 24 7.99998Z" fill="#AE3934"/>
<path fill-rule="evenodd" clip-rule="evenodd" d="M20 16C20 17.034 19.608 17.978 18.964 18.688C19.9717 19.2337 20.7847 20.0795 21.29 21.108C21.7279 21.9948 21.97 22.9654 22 23.954V28C22 28.5305 21.7893 29.0392 21.4142 29.4142C21.0391 29.7893 20.5304 30 20 30H12C11.4696 30 10.9609 29.7893 10.5858 29.4142C10.2107 29.0392 10 28.5305 10 28V23.956C10.001 23.8659 10.005 23.7759 10.012 23.686C10.0774 22.789 10.3151 21.9131 10.712 21.106C11.2168 20.0778 12.029 19.232 13.036 18.686C12.5999 18.2048 12.2875 17.6245 12.1258 16.9955C11.9642 16.3664 11.9582 15.7075 12.1083 15.0756C12.2584 14.4436 12.5601 13.8578 12.9874 13.3686C13.4146 12.8795 13.9546 12.5017 14.5606 12.268C15.1665 12.0342 15.8203 11.9516 16.4654 12.0272C17.1105 12.1027 17.7274 12.3342 18.263 12.7017C18.7986 13.0691 19.2366 13.5615 19.5392 14.1361C19.8419 14.7108 20 15.3505 20 16ZM12 24V28H20V24C20 24 20 20 16 20C12 20 12 24 12 24ZM18 16C18 16.5305 17.7893 17.0392 17.4142 17.4142C17.0391 17.7893 16.5304 18 16 18C15.4696 18 14.9609 17.7893 14.5858 17.4142C14.2107 17.0392 14 16.5305 14 16C14 15.4696 14.2107 14.9609 14.5858 14.5858C14.9609 14.2107 15.4696 14 16 14C16.5304 14 17.0391 14.2107 17.4142 14.5858C17.7893 14.9609 18 15.4696 18 16Z" fill="#AE3934"/>
</svg>
